<?xml version="1.0" encoding="UTF-8" standalone="no"?>
<!DOCTYPE svg PUBLIC "-//W3C//DTD SVG 1.1//EN" "http://www.w3.org/Graphics/SVG/1.1/DTD/svg11.dtd">
<svg width="100%" height="100%" viewBox="0 0 1890 1890" version="1.1" xmlns="http://www.w3.org/2000/svg" xmlns:xlink="http://www.w3.org/1999/xlink" xml:space="preserve" xmlns:serif="http://www.serif.com/" style="fill-rule:evenodd;clip-rule:evenodd;stroke-linejoin:round;stroke-miterlimit:1.41421;">
    <g transform="matrix(1.33333,0,0,1.33333,0,0)">
        <g>
            <path d="M694.968,519.887C694.923,519.197 694.9,518.5 694.9,517.798C694.9,500.356 709.061,486.194 726.504,486.194C743.946,486.194 758.107,500.356 758.107,517.798C758.107,518.5 758.084,519.197 758.039,519.887C886.113,536.976 985.465,656.802 985.466,801.883C985.466,964.909 1025.39,1109.95 1087.24,1202.01L778.619,1202.01C778.619,1230.78 755.267,1254.13 726.504,1254.13C697.74,1254.13 674.388,1230.78 674.388,1202.01L365.769,1202.01C427.621,1109.95 467.541,964.911 467.541,801.883C467.541,656.802 566.893,536.976 694.968,519.887Z" style="fill:rgb(200,188,62);"/>
        </g>
    </g>
</svg>
